<!-- icon666.com - MILLIONS vector ICONS FREE --><svg id="_x31_px" viewBox="0 0 24 24" xmlns="http://www.w3.org/2000/svg"><path d="m12 24c-.073 0-.146-.016-.215-.048-2.499-1.188-5.661-1.273-9.951-.265-.45.1-.913-.006-1.271-.293-.358-.287-.563-.715-.563-1.174v-16.11c0-.561.324-1.086.826-1.337 2.112-1.067 3.96-1.644 5.648-1.762.266-.014.515.189.535.464.018.275-.189.514-.464.534-1.553.108-3.276.65-5.27 1.658-.168.083-.275.257-.275.443v16.11c0 .154.068.298.188.394.07.056.219.143.423.098 4.398-1.035 7.71-.96 10.389.237 2.677-1.197 5.989-1.272 10.395-.236.204.044.348-.044.417-.099.12-.096.188-.239.188-.394v-16.11c0-.186-.107-.359-.273-.442-2.201-1.112-4.079-1.66-5.741-1.677-.276-.003-.498-.229-.495-.505.003-.274.227-.495.5-.495h.005c1.819.019 3.841.603 6.181 1.784.499.249.823.774.823 1.335v16.11c0 .459-.205.887-.563 1.174-.357.286-.818.391-1.266.294-4.295-1.01-7.457-.926-9.957.263-.068.033-.141.049-.214.049z"></path><path d="m12 23.75c-.276 0-.5-.224-.5-.5v-10.75c0-.276.224-.5.5-.5s.5.224.5.5v10.75c0 .276-.224.5-.5.5z"></path><path d="m4.5 16c-.049 0-.1-.007-.148-.022-.264-.083-.411-.363-.329-.626 2.261-7.251 5.047-12.192 8.516-15.105.285-.239.677-.31 1.013-.19.33.116.568.395.639.745.466 2.37.384 4.392-.244 6.009-.053.136-.161.242-.299.291-.136.047-.289.036-.415-.037l-1.233-.704v2.879c0 .157-.074.306-.2.4-1.321.991-3.108 1.568-5.313 1.716-.527 1.325-1.029 2.755-1.509 4.292-.068.215-.265.352-.478.352zm8.71-15.003c-2.423 2.029-4.498 5.1-6.296 9.321 1.67-.171 3.041-.618 4.086-1.334v-3.484c0-.178.095-.343.249-.432.152-.09.344-.09.499-.002l1.452.828c.381-1.345.385-2.989.01-4.897z"></path></svg>