<!-- icon666.com - MILLIONS vector ICONS FREE --><svg version="1.1" id="Capa_1" xmlns="http://www.w3.org/2000/svg" xmlns:xlink="http://www.w3.org/1999/xlink" x="0px" y="0px" viewBox="0 0 512 512" style="enable-background:new 0 0 512 512;" xml:space="preserve"><g><g><path d="M498.248,308.353c0-12.145-4.138-23.334-11.063-32.259c13.62-9.543,22.549-25.344,22.549-43.2 c0-29.075-23.654-52.73-52.729-52.73h-122.73l17.195-59.396V92.856C351.47,41.655,309.815,0,258.614,0 c-12.082,0-21.912,9.83-21.912,21.912v62.359c-8.995,14.617-65.263,77.317-122.631,138.558v252.312l59.263,22.224 C199.23,507.076,226.384,512,254.04,512h75.433h69.361h23.71c29.075,0,52.729-23.654,52.729-52.729 c0-12.139-4.124-23.334-11.043-32.256c13.613-9.544,22.53-25.352,22.53-43.203c0-12.145-4.138-23.334-11.063-32.258 C489.318,342.009,498.248,326.209,498.248,308.353z"></path></g></g><g><g><rect x="2.266" y="239.8" width="81.81" height="229.39"></rect></g></g></svg>